<svg width="14" height="19" fill="none" xmlns="http://www.w3.org/2000/svg"><g clip-path="url(#clip0_69_2114)"><path d="M6.28 17.792C.984 10.387 0 9.627 0 6.905 0 3.177 3.134.155 7 .155s7 3.022 7 6.75c0 2.722-.983 3.482-6.28 10.887a.894.894 0 01-1.44 0zM7 9.718c1.61 0 2.917-1.26 2.917-2.813C9.917 5.352 8.61 4.093 7 4.093c-1.61 0-2.917 1.259-2.917 2.812C4.083 8.46 5.39 9.718 7 9.718z" fill="#fff"/></g><defs><clipPath id="clip0_69_2114"><path fill="#fff" transform="translate(0 .155)" d="M0 0h14v18H0z"/></clipPath></defs></svg>