<svg width="16" height="14" fill="none" xmlns="http://www.w3.org/2000/svg"><g clip-path="url(#clip0_69_2110)"><path d="M14.4.155H1.6C.72.155.008.887.008 1.78L0 11.53c0 .894.72 1.625 1.6 1.625h12.8c.88 0 1.6-.731 1.6-1.625V1.78c0-.893-.72-1.625-1.6-1.625zm-.32 3.453L8.424 7.2a.798.798 0 01-.848 0L1.92 3.608a.683.683 0 01-.326-.43.701.701 0 01.27-.739.675.675 0 01.776 0L8 5.842l5.36-3.405a.674.674 0 011.06.462.701.701 0 01-.133.527.683.683 0 01-.207.181z" fill="#fff"/></g><defs><clipPath id="clip0_69_2110"><path fill="#fff" transform="translate(0 .155)" d="M0 0h16v13H0z"/></clipPath></defs></svg>