<svg width="15" height="16" fill="none" xmlns="http://www.w3.org/2000/svg"><g clip-path="url(#clip0_69_2107)"><path d="M10.72 9.59h-.677l-.24-.232a5.55 5.55 0 001.346-3.628 5.574 5.574 0 10-5.574 5.575 5.55 5.55 0 003.627-1.347l.232.24v.678l4.288 4.28L15 13.876 10.72 9.59zm-5.145 0a3.854 3.854 0 01-3.86-3.86 3.854 3.854 0 013.86-3.86 3.854 3.854 0 013.859 3.86 3.854 3.854 0 01-3.86 3.86z" fill="#BFBFBD"/></g><defs><clipPath id="clip0_69_2107"><path fill="#fff" transform="translate(0 .155)" d="M0 0h15v15H0z"/></clipPath></defs></svg>