<svg width="125" height="286" fill="none" xmlns="http://www.w3.org/2000/svg"><path d="M110.46 50.054a11.36 11.36 0 00-.669-7.014c-2.745-6.444-10.253-22.404-17.475-22.904-9.058-.627-6.2 7.349-2.986 9.254a5.306 5.306 0 005.833-.12s8.676 10.541 7.739 13.81c0 0-5 0-3.334 4.762 1.459 4.167 9.024 10.248 10.892 2.212z" fill="#DC911B"/><path d="M93.32 117.857s23.312 80.447-8.29 107.231c-31.604 26.785-65.353 39.106-65.353 39.106l-3.214 12.321-16.07-39.106 44.998-51.426 19.282-78.747" fill="#E2E2E2"/><path d="M61.856 160.27c-4.03 0-7.88 1.814-11.422 5.115l-5.043 20.598-10.924 12.484c-2.594 10.941-4.076 23.588-4.076 37.064a173.47 173.47 0 001.552 23.389c12.658-5.954 33.292-17.056 53.086-33.832a36.637 36.637 0 007.287-8.492c-3.51-32.4-15.817-56.326-30.46-56.326z" fill="#000"/><path d="M83.79 105.795S91 223.47 70.637 279.185l4.253 6.249H38.672s-3.957-149.676-3.957-181.981l49.075 2.342zM75.374 14.749v15.293L56.43 34.698V8.89l18.944-4.656v10.515z" fill="#EDEEEF"/><path d="M64.673 20.04a.507.507 0 100-1.014.507.507 0 000 1.014zM72.453 20.04a.506.506 0 100-1.013.506.506 0 000 1.012z" fill="#000"/><path d="M70.17 22.555v-7.806h3.911M63.719 14.748h3.91" stroke="#000" stroke-width="1.5" stroke-linecap="round" stroke-linejoin="round"/><path d="M57.678 18.748v2.711a2.648 2.648 0 01-2.637-2.888c.148-1.645 2.637-1.473 2.637.177z" fill="#EDEEEF"/><path d="M57.678 21.46a2.648 2.648 0 01-2.648-2.649" stroke="#000" stroke-width="1.5" stroke-linecap="round" stroke-linejoin="round"/><path d="M68.46 24.48a2.68 2.68 0 01-2.68-2.68" stroke="#DC911B" stroke-width="1.5" stroke-linecap="round" stroke-linejoin="round"/><path d="M75.375 30.041L56.43 34.698M70.17 22.561l-1.71.42" stroke="#000" stroke-width="1.5" stroke-linecap="round" stroke-linejoin="round"/><path d="M34.715 62.083v41.37l58.605 14.404V71.783c0-16.337-11.153-30.564-27.018-34.463a25.5 25.5 0 00-31.587 24.763z" fill="#DC911B"/><path d="M83.79 105.795S91 223.47 70.637 279.185M58.788 16.68S62 16.503 70.17 10.52v2.321s4.688-1.339 6.027-3.66" stroke="#000" stroke-width="1.5" stroke-linecap="round" stroke-linejoin="round"/><path d="M76.626 8.272S86.734-5.105 58.787 4.234L61.823.922s-14.91 4.827-6.16 16.498M75.097 18.258s3.699-4.968 2.214-11.048M40.211 46.262S3.734 75.699 9.448 113.2c5.715 37.5 43.462 40 43.462 40l5.878-10.357-24.073-39.39 22.963-23.468M52.91 153.2l12.059-21.25M82.492 46.262s12.195 12.77 18.148 27.056" stroke="#000" stroke-width="1.5" stroke-linecap="round" stroke-linejoin="round"/><path d="M92.316 102.605s4.514 9.524 16.895 12.619c12.295 3.073 25.294-51.846-2.27-87.118a4.426 4.426 0 00-2.353-1.58c-1.701-.44-3.893.185-2.987 7.03 0 0-3.819-1.352-1.914 3.015 1.905 4.366 5.444 21.306-1.207 32.122" stroke="#000" stroke-width="1.5" stroke-linecap="round" stroke-linejoin="round"/></svg>