<svg width="121" height="286" fill="none" xmlns="http://www.w3.org/2000/svg"><path d="M35.923 102.501s-67.925 126.094 77.624 134.72l7.008 5.929v-41.508l-48.9-15.094-1.437-100.267" fill="#E2E2E2"/><path d="M71.357 165.755c-11.64 4.83-20.404 25.942-20.404 51.257 0 1.271.022 2.532.067 3.78 11.854 7.251 27.845 12.672 49.156 15.24a102.155 102.155 0 001.738-19.02 100.417 100.417 0 00-2.323-21.841l-27.935-8.623-.299-20.793z" fill="#000"/><path d="M44.99 101.619l42.082-2.883 7.652 3.116L98.32 285.63H59.234l4.133-7.406L44.99 101.619zM49.745 13.237v6.643c0 5.136 3.506 9.608 8.494 10.834l10.57 2.598V7.342l-8.789-2.16a8.295 8.295 0 00-10.275 8.055z" fill="#EDEEEF"/><path d="M49.745 19.88c0 5.136 3.506 9.609 8.494 10.835l10.57 2.598" stroke="#000" stroke-width="1.5" stroke-linecap="round" stroke-linejoin="round"/><path d="M60.514 18.562a.51.51 0 100-1.02.51.51 0 000 1.02zM52.685 18.562a.51.51 0 100-1.02.51.51 0 000 1.02z" fill="#000"/><path d="M54.982 21.093v-7.856h-3.935M61.474 13.237H57.54" stroke="#000" stroke-width="1.5" stroke-linecap="round" stroke-linejoin="round"/><path d="M67.553 17.263v2.728a2.664 2.664 0 002.654-2.907c-.15-1.655-2.654-1.483-2.654.179z" fill="#EDEEEF"/><path d="M67.553 19.99a2.664 2.664 0 002.665-2.664" stroke="#000" stroke-width="1.5" stroke-linecap="round" stroke-linejoin="round"/><path d="M57.133 22.01a1.764 1.764 0 002.495 0" stroke="#DC911B" stroke-width="1.5" stroke-linecap="round" stroke-linejoin="round"/><path d="M54.982 21.1l1.721.422" stroke="#000" stroke-width="1.5" stroke-linecap="round" stroke-linejoin="round"/><path d="M35.924 60.87v41.631l58.974 14.495V70.631c0-16.44-11.223-30.756-27.188-34.68a25.661 25.661 0 00-31.786 24.92z" fill="#DC911B"/><path d="M63.367 278.224L44.99 101.619M55.842 29.822s0 8.544-14.497 7.775l-3.319-3.319s1.834-37.83 27.57-32.914c4.069.777 7.696 3.187 9.669 6.829 2.2 4.063 2.554 9.962-6.38 16.36" stroke="#000" stroke-width="1.5" stroke-linecap="round" stroke-linejoin="round"/><path d="M36.78 35.574c.134 0 3.324 3.324 3.324 3.324" stroke="#DC911B" stroke-width="1.5" stroke-linecap="round" stroke-linejoin="round"/><path d="M49.745 16.737s8.69-2.157 11.279-7.458c0 0 2.833 7.341 6.53 7.983M36.15 37.236s-9.166 5.168-7.608 17.747a16.179 16.179 0 005.841 10.642 5.896 5.896 0 009.659-3.906c.27-2.447.79-4.96 1.75-6.856 3.953-7.787-7.951-15.965-7.951-15.965M82.68 43.734s58.833 65.997 1.688 99.781l-9.344-15.66 13.298-24.234-13.298-22.282M84.368 143.514l-14.582-24.439" stroke="#000" stroke-width="1.5" stroke-linecap="round" stroke-linejoin="round"/><path d="M14.05 44.316a11.434 11.434 0 01.673-7.059c2.762-6.485 10.317-22.545 17.585-23.048 9.115-.631 6.24 7.395 3.005 9.312a5.339 5.339 0 01-5.87-.12s-8.73 10.607-7.787 13.897c0 0 5.031 0 3.354 4.792-1.467 4.193-9.08 10.312-10.96 2.226z" fill="#DC911B"/><path d="M21.294 31.226s6.828-5.774 0-7.75C14.465 21.499-.81 42.704 1.707 66.064c2.515 23.361 19.196 38.816 34.217 26.057" stroke="#000" stroke-width="1.5" stroke-linecap="round" stroke-linejoin="round"/><path d="M21.541 46.65s1.11 10.43 4.564 16.719l3.89-3.337" stroke="#000" stroke-width="1.5" stroke-linecap="round" stroke-linejoin="round"/></svg>