<svg width="381" height="322" fill="none" xmlns="http://www.w3.org/2000/svg"><path d="M366.83 31.754c-29.763 0-55.232-12.727-65.705-30.754-10.473 18.027-35.942 30.754-65.705 30.754a102.02 102.02 0 01-12.818-.804v98.407a65.161 65.161 0 0032.581 56.432l45.942 26.525 45.942-26.525a65.161 65.161 0 0032.581-56.432V30.95a102.02 102.02 0 01-12.818.804z" fill="#EDEEEF"/><path d="M347.068 185.789a65.158 65.158 0 0032.58-56.432V30.95c-4.251.537-8.532.805-12.818.804-29.762 0-55.232-12.727-65.705-30.754v211.314l45.943-26.525z" fill="#D6D6D6"/><path d="M301.125 212.314l45.943-26.525a65.16 65.16 0 0032.58-56.432V30.95c-4.251.537-8.532.805-12.818.804-29.762 0-55.232-12.727-65.705-30.754" stroke="#000" stroke-width="1.5"/><path d="M236.69 303.828h-23.772V293.77h-24.289v-11.887l-18.088-16.002h-27.39v-46.175h-35.659v-57.148l-44.96 39.775v75.892H38.759v33.618H28.94v-9.387H11.37v18.774h237.206v-6.887l-11.886-10.515z" fill="#F4F4F4"/><path d="M0 321.23h259.946" stroke="#000" stroke-width="1.5"/><path fill="#fff" d="M110.242 231.274h3.248v2.873h-3.248zM118.144 231.274h3.248v2.873h-3.248zM126.048 231.274h3.248v2.873h-3.248zM110.242 239.021h3.248v2.873h-3.248zM118.144 239.021h3.248v2.873h-3.248zM126.048 239.021h3.248v2.873h-3.248zM110.242 246.768h3.248v2.873h-3.248zM118.144 246.768h3.248v2.873h-3.248zM126.048 246.768h3.248v2.873h-3.248zM110.242 254.514h3.248v2.873h-3.248zM118.144 254.514h3.248v2.873h-3.248zM126.048 254.514h3.248v2.873h-3.248zM110.242 262.261h3.248v2.873h-3.248zM118.144 262.261h3.248v2.873h-3.248zM126.048 262.261h3.248v2.873h-3.248zM110.242 270.008h3.248v2.873h-3.248zM118.144 270.008h3.248v2.873h-3.248zM126.048 270.008h3.248v2.873h-3.248zM110.242 277.754h3.248v2.873h-3.248zM118.144 277.754h3.248v2.873h-3.248zM126.048 277.754h3.248v2.873h-3.248zM110.242 285.501h3.248v2.873h-3.248zM118.144 285.501h3.248v2.873h-3.248zM126.048 285.501h3.248v2.873h-3.248zM110.242 293.248h3.248v2.873h-3.248zM118.144 293.248h3.248v2.873h-3.248zM126.048 293.248h3.248v2.873h-3.248z"/><path d="M180.05 131.358l-30.268-4.704s-22.303 106.41-10.334 185.796l-3.53 7.83h40.102l11.387-121.089-7.357-67.833z" fill="#E2E2E2"/><path d="M159.922 129.146s-7.671 125.205 13.995 184.485l-4.525 6.649h38.535s4.21-159.253 4.21-193.626l-52.215 2.492z" fill="#EDEEEF"/><path d="M159.922 129.146s-7.671 125.205 13.995 184.485l-4.525 6.649" stroke="#000" stroke-width="1.5"/><path d="M187.407 32.274v16.271L167.249 53.5V26.04l20.158-4.954v11.188z" fill="#EDEEEF"/><path d="M176.02 37.903a.539.539 0 100-1.077.539.539 0 000 1.077zM184.298 37.903a.539.539 0 100-1.077.539.539 0 000 1.077z" fill="#000"/><path d="M181.869 40.58v-8.306h4.161M175.005 32.274h4.161" stroke="#000" stroke-width="1.5"/><path d="M168.577 36.53v2.884a2.817 2.817 0 01-2.805-3.074c.158-1.75 2.805-1.567 2.805.19z" fill="#EDEEEF"/><path d="M168.577 39.414a2.817 2.817 0 01-2.817-2.817" stroke="#000" stroke-width="1.5"/><path d="M180.05 42.627a2.852 2.852 0 01-2.852-2.851" stroke="#DC911B" stroke-width="1.5" stroke-linecap="round" stroke-linejoin="round"/><path d="M187.407 48.545L167.25 53.5" stroke="#000" stroke-width="1.5"/><path d="M181.87 40.586l-1.82.447" stroke="#000" stroke-width="1.5" stroke-linecap="round"/><path d="M149.782 82.637v44.017l62.355 15.326V92.957c0-17.382-11.867-32.519-28.747-36.668a27.133 27.133 0 00-33.608 26.348z" fill="#DC911B"/><path d="M187.407 30.914c0-.686 7.441-12.846-10.848-13.1-18.289-.253-9.39 17.303-9.39 17.303" stroke="#000" stroke-width="1.5"/><path d="M168.577 33.046s2.676-3.99 2.866-5.605c0 0 13.085.19 15.235-2.85" stroke="#000" stroke-width="1.5"/><path d="M165.947 68.647l-8.943 46.575 3.293 8.613 8.28-7.093-.553-47.754 2.913-4.18h-6.967l1.977 3.84z" fill="#000"/><path d="M199.545 64.808s73.738 71.693-5.682 116.913l-8.493-13.3 17.233-44.586-16.573-23.054M193.864 181.721l-16.501-25.84M154.619 67.16s-36.19 56.122-11.456 98.705" stroke="#000" stroke-width="1.5"/><path d="M268.862 111.048l4.702-4.702 23.991 23.99-4.702 4.703-23.991-23.991z" fill="#DC911B"/><path d="M340.211 78.276l4.702 4.702-52.06 52.061-4.703-4.703 52.061-52.06z" fill="#DC911B"/><path d="M69.121 2.794c-11.016-.02-19.961 8.894-19.981 19.91l39.891.07c.02-11.015-8.894-19.96-19.91-19.98zM110.672 11.442c-6.281-.011-11.381 5.07-11.392 11.351l22.743.04a11.371 11.371 0 00-11.351-11.392z" fill="#EDEEEF"/><path d="M89.068 1.917c-11.52-.02-20.874 9.302-20.894 20.82l41.714.075c.021-11.52-9.301-20.874-20.82-20.895z" fill="#EDEEEF"/><path d="M45.475 22.697l81.989.146" stroke="#000" stroke-width="1.5"/><path d="M109.596 46.504c9.13-.017 16.545 7.372 16.562 16.503l-33.065.058c-.017-9.13 7.372-16.545 16.503-16.561zM75.155 53.672a9.426 9.426 0 019.443 9.409l-18.852.033a9.425 9.425 0 019.41-9.442z" fill="#EDEEEF"/><path d="M93.062 45.777c9.548-.017 17.302 7.71 17.319 17.258l-34.576.061c-.018-9.548 7.709-17.302 17.257-17.319z" fill="#EDEEEF"/><path d="M129.195 63.001l-67.959.121" stroke="#000" stroke-width="1.5"/><path d="M323.927 238.369a22.262 22.262 0 01-5.905-8.909 21.06 21.06 0 00-39.603 0 22.26 22.26 0 01-5.904 8.909 21.06 21.06 0 0017.932 36.284 43.758 43.758 0 0115.547 0 21.054 21.054 0 0017.933-36.284z" fill="#DC911B"/><path d="M290.447 274.653a43.758 43.758 0 0115.547 0 21.07 21.07 0 0024.813-20.716M256.054 321.23h84.333M298.221 260.045v61.185M307.152 251.113l-8.931 8.932-8.932-8.932" stroke="#000" stroke-width="1.5"/><path d="M262.949 274.902a12.436 12.436 0 01-3.301-4.981 11.775 11.775 0 00-22.143 0 12.436 12.436 0 01-3.301 4.981 11.775 11.775 0 0010.026 20.287 24.462 24.462 0 018.693 0 11.773 11.773 0 0010.026-20.287z" fill="#DC911B"/><path d="M244.23 295.188a24.462 24.462 0 018.693 0 11.78 11.78 0 0013.873-11.582M248.577 287.021v34.209M253.57 282.027l-4.994 4.994-4.993-4.994" stroke="#000" stroke-width="1.5"/></svg>