<svg width="332" height="307" fill="none" xmlns="http://www.w3.org/2000/svg"><path d="M62.377 110.895l-32.129-10.224-1.02 203.85h37.14l-3.991-8.919c17.96-64.407 0-184.707 0-184.707z" fill="#DC911B"/><path d="M53.103 236.216c0-47.745-9.693-86.45-21.65-86.45-.49.003-.978.069-1.451.198l-.774 154.557h15.495c5.099-15.816 8.38-40.529 8.38-68.305z" fill="#000"/><path d="M51.785 113.387s7.67 125.205-13.995 184.485l4.525 6.649H3.78S.022 151.205.022 116.832l51.763-3.445z" fill="#DC911B"/><path d="M43.601 16.515v16.272L23.444 37.74V10.28l20.157-4.954v11.188z" fill="#EDEEEF"/><path d="M30.248 25.03s4.909-1.614 6.524.856c0 0 2.048-2.298 4.687-.443" stroke="#DC911B" stroke-width="1.5" stroke-linecap="round" stroke-linejoin="round"/><path d="M32.215 22.145a.539.539 0 100-1.078.539.539 0 000 1.078zM40.493 22.145a.539.539 0 100-1.078.539.539 0 000 1.078z" fill="#000"/><path d="M38.065 24.82v-8.305h4.16M31.2 16.515h4.16M42.873 15.155h0" stroke="#000" stroke-width="1.5"/><path d="M24.772 20.77v2.885a2.817 2.817 0 01-2.806-3.074c.158-1.749 2.806-1.567 2.806.19z" fill="#EDEEEF"/><path d="M24.772 23.655a2.817 2.817 0 01-2.817-2.817" stroke="#000" stroke-width="1.5"/><path d="M35.615 26.868c-.88 0-1.593-.713-1.593-1.593" stroke="#DC911B" stroke-width="1.5" stroke-linecap="round" stroke-linejoin="round"/><path d="M29.228 36.319l-5.784 1.422" stroke="#000" stroke-width="1.5"/><path d="M38.064 24.827l-1.82.447" stroke="#000" stroke-width="1.5" stroke-linecap="round"/><path d="M62.377 66.878v44.017L.022 126.221V77.198c0-17.382 11.867-32.519 28.747-36.668a27.132 27.132 0 0133.608 26.348z" fill="#EDEEEF"/><path d="M25.763 21.605s-3.04 9.98 4.053 15.174c6.604 4.835 17.015 2.004 14.551-9.306a33.764 33.764 0 01-.765-7.183v-.674M23.363 19.36s-6.705-12.28 3.62-14.493c0 0 4.199-5.245 10.171-2.705 5.973 2.54 8.841.758 8.923 3.165.082 2.408.376 6.423-2.476 8.472" stroke="#DC911B" stroke-width="1.5" stroke-linecap="round" stroke-linejoin="round"/><path d="M27.536 19.358l1.692-6.899s12.325.19 14.373-3.167" stroke="#DC911B" stroke-width="1.5" stroke-linecap="round" stroke-linejoin="round"/><path d="M51.785 113.387s7.67 125.205-13.995 184.485l4.525 6.649" stroke="#000" stroke-width="1.5"/><path d="M12.8 48.882s-10.47 41.35 2.196 56.804c12.667 15.453 71.947 6.333 89.173-10.387 0 0 6.08-1.52 7.347-4.56 0 0 5.827 4.307 5.573 1.52-.253-2.786-2.28-11.47-12.666-9.282-10.387 2.189-60.822 3.202-60.822 3.202l1.136-21.786M59.502 54.689s7.619 14.766 6.637 30.855M63.667 120.44s20.297 8.061 28.88-17.533" stroke="#000" stroke-width="1.5"/><path d="M73.025 85.285s21.506-11.108 24.811-6.452l3.305 4.655M274.021 1.468H135.619v88.374l-44.502 44.502v170.177H73.024M96.029 305.471h235.949" stroke="#000" stroke-width="1.5"/><path d="M304.072 303.615s4.065-7.193-6.255-8.757a33.832 33.832 0 00-18.139 2.189s7.193-8.756-4.065-12.509c-11.259-3.753-22.83 5.004-22.83 5.004s11.258-20.954 2.502-22.518c-8.757-1.563-13.448 7.506-13.448 7.506s.938-25.957-17.201-26.583c-18.139-.625-16.262 33.151-16.262 33.151s-7.819-15.012-20.954-15.637c-13.135-.626-6.567 25.145-6.567 25.145s-2.502-6.068-11.259-6.694c-8.756-.625-8.131 6.714-8.131 6.714s-11.259-15.783-23.768-14.845c-12.51.938-7.193 16.575-7.193 16.575-12.822-.938-15.637 13.115-15.637 13.115h198.276l-9.069-1.856zM141.624 151.363h152.029v88.781H141.624z" fill="#000"/><path fill="#EDEEEF" d="M121.991 131.73H274.02v88.781H121.991z"/><path d="M274.021 131.778v88.781l-152.03-.096" stroke="#000" stroke-width="1.5"/><path d="M139.13 209.142a5.701 5.701 0 100-11.403 5.701 5.701 0 000 11.403zM256.881 154.502a5.701 5.701 0 10.001-11.403 5.701 5.701 0 00-.001 11.403zM256.881 209.142a5.702 5.702 0 100-11.404 5.702 5.702 0 000 11.404zM139.13 154.502a5.701 5.701 0 100-11.403 5.701 5.701 0 000 11.403z" fill="#D6D6D6"/></svg>