<svg width="389" height="311" fill="none" xmlns="http://www.w3.org/2000/svg"><path d="M237.445 164.028c40.181 0 72.754-32.573 72.754-72.754 0-40.18-32.573-72.753-72.754-72.753-40.181 0-72.754 32.573-72.754 72.753 0 40.181 32.573 72.754 72.754 72.754z" fill="#EDEEEF"/><path clip-rule="evenodd" d="M237.445 164.028c40.181 0 72.754-32.573 72.754-72.754 0-40.18-32.573-72.753-72.754-72.753-40.181 0-72.754 32.573-72.754 72.753 0 40.181 32.573 72.754 72.754 72.754z" stroke="#000" stroke-width="1.5"/><path fill="#EDEEEF" d="M210.997.155h52.896v182.238h-52.896z"/><path d="M145.309 68.62l26.448-45.81 157.823 91.12-26.448 45.808-157.823-91.119z" fill="#EDEEEF"/><path d="M171.757 159.738l-26.448-45.809L303.132 22.81l26.448 45.81-157.823 91.118z" fill="#EDEEEF"/><path d="M237.445 109.463c10.045 0 18.188-8.143 18.188-18.188 0-10.046-8.143-18.189-18.188-18.189-10.045 0-18.189 8.143-18.189 18.189 0 10.045 8.144 18.188 18.189 18.188z" fill="#DC911B"/><path d="M219.257 91.275c0-10.046 8.143-18.189 18.188-18.189" stroke="#000" stroke-width="1.5"/><path d="M179.202 294.931c-6.269-65.547-45.197-162.529-45.197-162.529L99.975 111.4l3.762 52.437 5.071 50.053 43.036 96.813 39.328-12.352-11.97-3.42z" fill="#E2E2E2"/><path d="M123.864 119.569s7.671 125.205-13.995 184.485l4.526 6.649H75.859s-4.21-159.254-4.21-193.627l52.215 2.493zM110.184 22.696v16.272l-20.157 4.954v-27.46l20.157-4.953v11.187z" fill="#EDEEEF"/><path d="M98.797 28.326a.539.539 0 100-1.078.539.539 0 000 1.078zM107.075 28.326a.539.539 0 100-1.078.539.539 0 000 1.078z" fill="#000"/><path d="M104.646 31.002v-8.306h4.161M97.782 22.696h4.161" stroke="#000" stroke-width="1.5"/><path d="M91.354 26.952v2.884a2.817 2.817 0 01-2.806-3.073c.158-1.75 2.806-1.568 2.806.189z" fill="#EDEEEF"/><path d="M91.354 29.836a2.817 2.817 0 01-2.817-2.817" stroke="#000" stroke-width="1.5"/><path d="M102.827 33.05a2.851 2.851 0 01-2.851-2.852" stroke="#FF6498" stroke-width="1.5" stroke-linecap="round" stroke-linejoin="round"/><path d="M110.184 38.968l-20.157 4.954" stroke="#000" stroke-width="1.5"/><path d="M104.647 31.009l-1.82.447" stroke="#000" stroke-width="1.5" stroke-linecap="round"/><path d="M110.868 15.633s-5.019 3.737-15.026 2.597c0 0 0 6.598-3.547 8.62" stroke="#000" stroke-width="1.5"/><path d="M110.868 24.12s8.175-10.64-3.647-13.617c-11.823-2.976-17.27 2.85-17.27 2.85s-11.182 1.837.68 22.294" stroke="#000" stroke-width="1.5"/><path d="M71.65 73.06v44.016l62.354 15.326V83.38c0-17.383-11.867-32.52-28.747-36.668A27.131 27.131 0 0071.649 73.06z" fill="#DC911B"/><path d="M123.864 119.569s7.671 125.204-13.995 184.484M78.195 55.38s-33.972 45.072-20.01 71.657c13.962 26.585 81.32-13.427 82.08-20.52.76-7.093-15.082-3.293-15.082-3.293s1.909-12.92-6.198-.254l-30.448 3.294 9.88-23.814" stroke="#000" stroke-width="1.5"/><path d="M91.85 98.276l-3.313 7.988 22.825-2.469c-5.306-2.781-12.03-4.742-19.511-5.52zM71.838 135.767c.052 3.402.113 7.07.182 10.962 16.086-.132 37.003-8.831 46.444-18.147l.004.001c.12-.118.235-.237.352-.356l.093-.095c.159-.164.313-.327.465-.491l.082-.088c.153-.167.3-.333.445-.499l.071-.081c.146-.169.287-.339.424-.508l.059-.072c.14-.173.275-.346.406-.519l.045-.059c.133-.178.261-.355.384-.532l.033-.047c.125-.181.245-.361.359-.541l.024-.037c.117-.184.228-.368.334-.552l.014-.024a14 14 0 00.304-.56l.008-.015c.097-.19.188-.379.272-.568l.003-.005a9.096 9.096 0 00.813-3.017c-15.001 8.74-36.819 17.848-51.62 15.85z" fill="#000"/><path d="M115.869 103.307l.502-1.537a10.533 10.533 0 018.264-7.112l20.92-3.518a7.577 7.577 0 018.147 4.32v0c.069.15.229.237.392.213l43.678-6.515.551-1.872a1.65 1.65 0 011.797-1.17l8.842 1.16c.772.102 1.35.76 1.35 1.539v1.065c0 .638-.39 1.21-.983 1.444l-7.452 2.934a2.475 2.475 0 01-2.839-.757l-.886-1.108-43.711 7.57a.373.373 0 00-.265.191l-.164.309a19.846 19.846 0 01-13.924 10.197l-4.019.74M113.622 49.853s17.84 7.58 44.06 44.778" stroke="#000" stroke-width="1.5"/><path d="M134.004 120.957s30.327 10.64 38.687 2.787c8.361-7.854 10.894-29.113 10.894-29.113M183.585 91.274s1.837-18.26 1.647-23.58c0 0 3.139 1.71 5.939.76 0 0 1.85 3.04 3.18 2.85 1.33-.19.76-6.46-4.37-12.92s-27.982-6.419-34.701 32.89" stroke="#000" stroke-width="1.5"/><path d="M81.34 267.481c-1.659-4.646-6.52 1.49-6.52 1.49s5.857-12.441 0-15.262c-2.888-1.391-4.409.246-5.208 2.261 2.997-18.089 3.643-52.98-8.451-54.195-13.211-1.327-8.691 32.189-8.691 32.189s-3.65-9.623-8.296-5.309c-4.646 4.314 4.314 32.52 4.314 32.52-.996-2.986-6.305-5.309-8.296 0-1.992 5.31 5.641 16.593 5.641 16.593l26.216 4.314s10.95-9.956 9.291-14.601z" fill="#000"/><path d="M79.39 309.958H41.85l-8.301-33.545h54.141l-8.301 33.545z" fill="#DC911B"/><path d="M0 309.958h125.183M33.55 276.413h54.14" stroke="#000" stroke-width="1.5"/><path d="M382.915 309.958H245.196l52.801-117.535h84.918v117.535z" fill="#000"/><path fill="#EDEEEF" d="M188.229 293.168h89.816v16.791h-89.816zM203.226 276.377h89.817v16.791h-89.817zM218.223 259.586h89.817v16.791h-89.817z"/><path fill="#EDEEEF" d="M233.22 242.796h89.816v16.791H233.22zM248.218 226.005h89.817v16.791h-89.817zM263.215 209.214h89.816v16.791h-89.816zM278.212 192.423h89.816v16.791h-89.816z"/><path d="M188.23 293.167h89.816v16.791H188.23" stroke="#000" stroke-width="1.5"/><path d="M203.227 276.377h89.816v16.79h-89.816M218.224 259.586h89.816v16.791h-89.816M233.22 242.796h89.817v16.79H233.22M248.218 226.005h89.816v16.791h-89.816M263.215 209.214h89.816v16.791M278.212 192.423h89.816v16.791h-89.816M182.901 309.958h205.343" stroke="#000" stroke-width="1.5"/></svg>