<svg width="435" height="324" fill="none" xmlns="http://www.w3.org/2000/svg"><path fill="#EDEEEF" d="M189.908 14.838H424.08v145.31H189.908z"/><path fill="#FF6498" d="M254.328 6.886H359.66v18.499H254.328z"/><path d="M306.994 14.435c3.946 0 7.146-3.191 7.146-7.127s-3.2-7.127-7.146-7.127c-3.947 0-7.146 3.191-7.146 7.127s3.199 7.127 7.146 7.127z" fill="#FF6498"/><path fill="#DC911B" d="M254.328 6.886H359.66v18.499H254.328z"/><path d="M306.994 14.435c3.946 0 7.146-3.191 7.146-7.127s-3.2-7.127-7.146-7.127c-3.947 0-7.146 3.191-7.146 7.127s3.199 7.127 7.146 7.127z" fill="#DC911B"/><path d="M359.66 6.886v18.499H254.328M424.08 14.838v145.309H189.908M180.252 256.846h253.483M244.543 160.147l-38.302 96.699M369.444 160.147l38.302 96.699M218.243 223.303h177.501" stroke="#000" stroke-width="1.5" stroke-linecap="round" stroke-linejoin="round"/><path d="M81.738 62.64l18.908-3.635c-8.74 5.775-9 6-18.55 14.228l-.358.308V62.64zM131.456 191.567l-49.718-22.594s1.522-12.468 0-30.494l18.273-3.002-.155 12.324 59.25 32.548-27.65 11.218z" fill="#000"/><path d="M81.738 62.64l18.908-3.635c-8.74 5.775-9 6-18.55 14.228l-.358.308V62.64zM131.456 191.567l-49.718-22.594s1.522-12.468 0-30.494l18.273-3.002-.155 12.324 59.25 32.548-27.65 11.218z" stroke="#000"/><path d="M176.72 133.751s61.253 20.313 84.358 90.194l10.145 4.509-32.687 10.144-52.974-57.13-37.435-24.919" fill="#E2E2E2"/><path d="M199.264 254.358c16.3-111.379-40.189-115.803-40.189-115.803l-26.11 42.913 25.861-1.109 7.087 86.165L204.252 263l-4.988-8.642z" fill="#EDEEEF"/><path d="M199.264 254.358c16.3-111.379-40.189-115.803-40.189-115.803" stroke="#000" stroke-width="1.5" stroke-linecap="round" stroke-linejoin="round"/><path d="M146.016 123.402l-61.654 15.153s-4.077 47.296 61.654 42.913l35.601-49.838-35.601-8.228z" fill="#EDEEEF"/><path d="M146.016 181.468l35.601-49.839M84.362 138.555s-4.077 47.296 61.654 42.913" stroke="#000" stroke-width="1.5" stroke-linecap="round" stroke-linejoin="round"/><path d="M102.927 30.084v6.944c0 5.37 3.665 10.045 8.88 11.327l11.05 2.716V23.92l-9.188-2.259a8.673 8.673 0 00-10.742 8.422z" fill="#EDEEEF"/><path d="M102.927 37.028c0 5.37 3.665 10.045 8.88 11.327l11.05 2.716" stroke="#000" stroke-width="1.5" stroke-linecap="round" stroke-linejoin="round"/><path d="M114.185 35.65a.533.533 0 100-1.066.533.533 0 000 1.066zM106 35.65a.532.532 0 10.001-1.065.532.532 0 00-.001 1.065z" fill="#000"/><path d="M108.402 38.296v-8.212h-4.114M115.189 30.084h-4.114" stroke="#000" stroke-width="1.5" stroke-linecap="round" stroke-linejoin="round"/><path d="M121.544 34.292v2.852a2.786 2.786 0 002.774-3.04c-.156-1.73-2.774-1.55-2.774.188z" fill="#EDEEEF"/><path d="M121.544 37.143a2.786 2.786 0 002.786-2.785" stroke="#000" stroke-width="1.5" stroke-linecap="round" stroke-linejoin="round"/><path d="M110.651 39.256a1.844 1.844 0 002.608 0" stroke="#DC911B" stroke-width="1.5" stroke-linecap="round" stroke-linejoin="round"/><path d="M108.402 38.303l1.799.442M102.352 27.17l15.53.752s.888 5.09 3.662 5.636" stroke="#000" stroke-width="1.5" stroke-linecap="round" stroke-linejoin="round"/><path d="M102.352 40.572l-7.014-2.276s.376-26.53 22.92-22.522c0 0 14.277.574 15.78 15.979 1.503 15.404 1.268 16.39 1.268 16.39l-12.449-2.937" stroke="#000" stroke-width="1.5" stroke-linecap="round" stroke-linejoin="round"/><path d="M146.016 79.88v43.522l-61.654 15.153v-48.47c0-17.187 11.734-32.154 28.424-36.256a26.825 26.825 0 0133.23 26.052z" fill="#DC911B"/><path d="M102.352 58.15s-40.773 24.342-55.425 60.974c-14.653 36.631 59.12 14.102 59.12 14.102s11.998.783 16.507-4.86l5.469-.542-.648-2.589-45.587-10.02 21.139-19.417" stroke="#000" stroke-width="1.5" stroke-linecap="round" stroke-linejoin="round"/><path d="M81.787 115.215l16.72 3.675c-12.197-4.511.805-19.77.808-19.775l-17.528 16.1zM107.702 120.911c-.511-.369-1.92-.703-4.487-.986l4.487.986z" fill="#000"/><path d="M140.726 63.875l18.349 27.795s6.123-33.064 14.64-36.07c8.516-3.005 12.524-4.53 12.524-4.53l.953 3.009-3.959 4.072s3.843 8.47-2.587 10.475c0 0 19.033 54.06-19.749 58.215" stroke="#000" stroke-width="1.5" stroke-linecap="round" stroke-linejoin="round"/><path d="M161.99 197.887c0 32.309-26.191 58.5-58.5 58.5s-58.5-26.191-58.5-58.5c0-32.308 26.191-58.5 58.5-58.5s58.5 26.192 58.5 58.5z" fill="#EDEEEF" stroke="#EDEEEF" stroke-width="1.5"/><circle cx="99.224" cy="198.361" r="65.926" stroke="#000" stroke-width="1.5"/><circle cx="95.432" cy="198.361" fill="#000" r="10.428"/></svg>