<svg width="192" height="75" fill="none" xmlns="http://www.w3.org/2000/svg"><path d="M15.48 51.49l7.34 22.4a.42.42 0 01-.4.55H15.7a.42.42 0 01-.4-.31l-.71-2.63a.42.42 0 00-.4-.31h-4.13a.42.42 0 01-.4-.53l1.47-5.43a.63.63 0 01.61-.47.63.63 0 00.62-.77l-.57-2.57a.42.42 0 00-.81 0l-3.44 12.7a.42.42 0 01-.4.31H.42a.42.42 0 01-.4-.55l7.34-22.4a.42.42 0 01.4-.29h7.32a.42.42 0 01.4.3zM29 51.2h6.58a.42.42 0 01.37.22l4.15 7.88a.42.42 0 00.74 0L45 51.42a.42.42 0 01.37-.22H52a.42.42 0 01.42.38L54.24 74a.42.42 0 01-.42.45h-6.76a.42.42 0 01-.42-.39L46 63.51a.42.42 0 00-.8-.15L41.16 72a.63.63 0 01-.57.36h-.15a.63.63 0 01-.57-.36l-4.08-8.66a.42.42 0 00-.8.15L34.39 74a.42.42 0 01-.42.39h-6.76a.42.42 0 01-.41-.39l1.83-22.4a.42.42 0 01.37-.4zM60 51.2h6.38a.42.42 0 01.42.42v7.5a.42.42 0 00.78.21l4.73-7.93a.42.42 0 01.36-.2h5.77a.42.42 0 01.42.42V74a.42.42 0 01-.42.42H72.1a.419.419 0 01-.42-.42v-7.62a.42.42 0 00-.78-.21l-4.73 8.06a.42.42 0 01-.36.21H60a.42.42 0 01-.42-.42v-22.4a.42.42 0 01.42-.42z" fill="#BD5519"/><path d="M104.38 74.19h-5.11a.87.87 0 01-.87-.87V58.43a.87.87 0 00-.87-.87h-5.15a.87.87 0 00-.87.87v14.89a.87.87 0 01-.87.87h-5.11a.87.87 0 01-.87-.87V52.9a.868.868 0 01.87-.87h18.84a.87.87 0 01.87.87v20.42a.87.87 0 01-.86.87zM130.08 59.56a6.703 6.703 0 01-2.12 5.3 8.999 8.999 0 01-6.11 1.87h-2a.87.87 0 00-.87.87v5.73a.864.864 0 01-.537.804.873.873 0 01-.333.066H113a.873.873 0 01-.804-.537.883.883 0 01-.066-.333V52.9a.876.876 0 01.87-.9h8.33c2.94 0 5.17.707 6.69 2.12a7.002 7.002 0 012.06 5.44zm-7-.17c0-1.587-.96-2.38-2.88-2.38h-.06a1.211 1.211 0 00-1.21 1.21v2.35a1.213 1.213 0 001.21 1.21c1.953-.007 2.93-.807 2.93-2.4l.01.01zM159.46 63.11a11.22 11.22 0 01-3.26 8.24 13.74 13.74 0 01-18.29 0 11.234 11.234 0 01-3.26-8.24 11.22 11.22 0 013.26-8.24 13.739 13.739 0 0118.29 0 11.234 11.234 0 013.26 8.24zm-7.12 0a5.427 5.427 0 00-1.56-4 5.32 5.32 0 00-7.45 0 5.83 5.83 0 000 7.95 5.32 5.32 0 007.45 0 5.413 5.413 0 001.56-3.95zM191.78 62.14c0 3.333-1.16 5.757-3.48 7.27a11.911 11.911 0 01-6.56 1.59h-.37v2.27a.883.883 0 01-.255.615.878.878 0 01-.615.255h-5.08a.873.873 0 01-.804-.537.883.883 0 01-.066-.333V71h-.37a11.922 11.922 0 01-6.56-1.64c-2.333-1.493-3.5-3.917-3.5-7.27 0-3.353 1.167-5.77 3.5-7.25a11.999 11.999 0 016.56-1.62h.37v-1.61a.883.883 0 01.255-.615.877.877 0 01.615-.255h5.08a.869.869 0 01.87.87v1.66h.37c2.297-.1 4.574.463 6.56 1.62 2.32 1.493 3.48 3.91 3.48 7.25zm-17 3.67v-7.34h-.5a3.67 3.67 0 00-2.44.82 4.11 4.11 0 000 5.7 3.63 3.63 0 002.44.83l.5-.01zm10.49-3.67a3.508 3.508 0 00-1.15-2.86 3.67 3.67 0 00-2.44-.82h-.5v7.35h.5a3.63 3.63 0 002.42-.81 3.553 3.553 0 001.15-2.86h.02zM11 39.73v1.42h-1v-.61H7.56v-3.1h1v2.29h1v-2.29h1v2.29H11zM15.27 39.75v.79h-2.58v-3.1h2.52v.79h-1.49v.36H15v.75h-1.28v.41h1.55zM20.07 37.44v3.1H19V39.4h-1v1.14h-1v-3.1h1v1.1h1v-1.1h1.07zM24.59 38.25h-.91v2.29h-1v-2.29h-.91v-.81h2.84l-.02.81zM28.51 37.58a1.12 1.12 0 010 2.06 1.828 1.828 0 01-.75.14h-.45v.76h-1v-3.1h1.49c.244-.001.485.047.71.14zm-.5 1.3a.39.39 0 000-.54.47.47 0 00-.32-.09h-.38V39h.38a.47.47 0 00.31-.12h.01zM34.19 40.4a1.59 1.59 0 010-2.83 2.001 2.001 0 011.8 0 1.59 1.59 0 010 2.83 2 2 0 01-1.8 0zm1.25-.73a.68.68 0 00.25-.27.95.95 0 000-.82.68.68 0 00-.25-.27.7.7 0 00-.7 0 .691.691 0 00-.25.27.95.95 0 000 .82.69.69 0 00.25.27.7.7 0 00.7 0zM38.55 37.44h2.69v.79h-1.67v.36h.74c.309-.02.615.064.87.24a.839.839 0 01.3.7.889.889 0 01-.35.74 1.53 1.53 0 01-1 .27h-1.58v-3.1zm1.56 2.37a.39.39 0 00.24-.07.229.229 0 00.09-.19c0-.16-.11-.24-.33-.24h-.54v.5h.54zM46.14 37.44l-1.24 2.34a1.7 1.7 0 01-.54.63 1.23 1.23 0 01-.71.22 1.6 1.6 0 01-.6-.12l.24-.75c.104.03.212.047.32.05a.45.45 0 00.2 0 .479.479 0 00.16-.13l-1.19-2.19h1.1l.62 1.31.64-1.31 1-.05zM50.59 37.44v3.1h-1v-1c-.181.056-.37.087-.56.09a1.5 1.5 0 01-1-.32 1.212 1.212 0 01-.36-.94v-.93h1v.82a.6.6 0 00.12.42.49.49 0 00.38.13 1.12 1.12 0 00.43-.07v-1.3h.99zM55 39.75v.79h-2.53v-3.1H55v.79h-1.5v.36h1.31v.75H53.5v.41H55zM59.86 37.44v3.1h-1V39.4h-1v1.14h-1v-3.1h1v1.1h1v-1.1h1zM61.73 37.44h1v1.61l1.07-1.61h1v3.1h-1v-1.61l-1.06 1.61h-1l-.01-3.1zM69.41 37.44v3.1h-1v-.74h-.31l-.47.74h-1.1l.61-.89a1.06 1.06 0 01-.46-.4 1.13 1.13 0 01-.16-.61 1.15 1.15 0 01.18-.64c.122-.186.296-.332.5-.42.24-.103.499-.154.76-.15l1.45.01zm-1.83 1.18A.35.35 0 0068 39h.41v-.77H68c-.29.02-.43.14-.43.39h.01zM126.94 37.55h1v1.56l1-1.56h1v3h-1V39l-1 1.56h-1v-3.01zM135 40.43a1.543 1.543 0 01-.611-2.173c.148-.241.359-.438.611-.567a2 2 0 011.74 0 1.541 1.541 0 010 2.74 2 2 0 01-1.74 0zm1.21-.71a.662.662 0 00.24-.26.923.923 0 000-.8.662.662 0 00-.24-.26.68.68 0 00-.68 0 .667.667 0 00-.24.26.924.924 0 000 .8.667.667 0 00.24.26.68.68 0 00.68 0zM142.55 39.77v1.38h-.93v-.59h-2.41v-3h1v2.22h1v-2.23h1v2.22h.34zM146.68 39.79v.76h-2.5v-3h2.45v.76h-1.45v.35h1.27v.73h-1.27v.4h1.5zM151.35 37.55v3h-1v-1.1h-.94v1.11h-1v-3h1v1.07h.94v-1.08h1zM155.27 39l.89 1.55H155l-.58-1.09h-.28v1.09h-1v-3h1v1.12h.31l.64-1.12h1.06l-.88 1.45zM157.66 37.55h1v1.56l1-1.56h1v3h-1V39l-1 1.56h-1v-3.01zM167.22 37.69a1.078 1.078 0 010 2 1.768 1.768 0 01-.73.14h-.43v.74h-1v-3h1.45c.242-.009.484.032.71.12zm-.48 1.26a.38.38 0 000-.52.45.45 0 00-.31-.09h-.37V39h.37a.45.45 0 00.31-.05zM169.46 37.55h1v1.56l1-1.56h1v3h-1V39l-1 1.56h-1v-3.01zM174.93 40.43a1.496 1.496 0 01-.6-.56 1.641 1.641 0 010-1.63c.144-.24.352-.433.6-.56.266-.136.561-.205.86-.2.268-.006.534.045.78.15.225.1.421.254.57.45l-.64.57a.814.814 0 00-.66-.35.668.668 0 00-.51.2.868.868 0 000 1.1.67.67 0 00.51.2.82.82 0 00.66-.35l.64.57a1.44 1.44 0 01-.57.45 1.878 1.878 0 01-.78.15 1.83 1.83 0 01-.86-.19zM180.83 39l.89 1.55h-1.14l-.58-1.08h-.28v1.09h-1v-3h1v1.12h.28l.64-1.12h1.06l-.87 1.44zM183.86 40.43a1.543 1.543 0 01-.611-2.173c.148-.241.359-.438.611-.567a2 2 0 011.74 0 1.541 1.541 0 010 2.74 2 2 0 01-1.74 0zm1.21-.71a.662.662 0 00.24-.26.924.924 0 000-.8.662.662 0 00-.24-.26.68.68 0 00-.68 0 .667.667 0 00-.24.26.923.923 0 000 .8.667.667 0 00.24.26.68.68 0 00.68 0zM190.78 39.25a.706.706 0 01.13.44.75.75 0 01-.32.64c-.268.17-.583.25-.9.23h-1.61v-3h1.53c.304-.018.607.055.87.21a.655.655 0 01.31.58.696.696 0 01-.1.38.763.763 0 01-.29.27c.148.045.28.132.38.25zm-1.7-.54h.43c.17 0 .25-.07.25-.22s-.08-.23-.25-.23h-.43v.45zm.81.9c0-.15-.08-.23-.25-.23h-.56v.47h.56c.17 0 .25-.08.25-.24z" fill="#3E3E3D"/><path d="M99.89 0H81.47l18.42 22.7 9.22-11.35L99.89 0z" fill="#6F6F6E"/><path d="M81.47 0L63.04 22.7h18.43l9.21-11.35L81.47 0z" fill="#3E3E3D"/><path opacity=".2" d="M99.89 0H81.47l3.58 1.83h14.23l7.72 9.52h2.11L99.89 0z" fill="#fff"/><path d="M81.47 0l9.21 11.35-2.12 2.61L81.47 0z" fill="#B1B1B0"/><path d="M92.94 19.34l-2.4-2.95-2.37 2.92 2.39 2.95 2.38-2.92zM93.94 22.61l-3.38 4.16-3.38-4.17-5.84 7.2 9.22 11.35h18.42L93.94 22.61z" fill="#BD5519"/><path d="M108.98 18.45l-18.42 22.7h18.42l18.43-22.7h-18.43z" fill="#DC911B"/><path opacity=".2" d="M108.98 18.45l.62 1.83h14.22l-15.45 19.04.61 1.83 18.43-22.7h-18.43z" fill="#fff"/><path d="M90.56 41.15l9.21-11.35-2.12-2.62-7.09 13.97z" fill="#B1B1B0"/></svg>